<?xml version="1.0"?>
<svg xmlns="http://www.w3.org/2000/svg" xmlns:xlink="http://www.w3.org/1999/xlink" version="1.1" id="Capa_1" x="0px" y="0px" viewBox="0 0 480 480" style="enable-background:new 0 0 480 480;" xml:space="preserve" width="512px" height="512px" class=""><g><g>
	<g>
		<g>
			<path d="M240,304c57.41-0.066,103.934-46.59,104-104v-96C344,46.562,297.438,0,240,0S136,46.562,136,104v96     C136.066,257.41,182.59,303.934,240,304z M152,192v-32h32v-16h-32v-32h32V96h-31.592C156.579,50.722,194.53,16.06,240,16     c45.47,0.06,83.421,34.722,87.592,80H296v16h32v32h-32v16h32v32h-32v16h31.592c-4.341,48.38-47.081,84.081-95.461,79.739     c-42.364-3.802-75.937-37.375-79.739-79.739H184v-16H152z" data-original="#000000" class="active-path" data-old_color="#FF0068" fill="#D70026"/>
			<path d="M248,351.592c80.638-4.278,143.867-70.841,144-151.592h-16c0,75.111-60.889,136-136,136s-136-60.889-136-136H88     c0.133,80.751,63.362,147.314,144,151.592V464H96v16h288v-16H248V351.592z" data-original="#000000" class="active-path" data-old_color="#FF0068" fill="#D70026"/>
		</g>
	</g>
</g></g> </svg>
